<svg xmlns="http://www.w3.org/2000/svg" width="153.3" height="243.299" viewBox="0 0 153.3 243.299">
  <path id="banglore" d="M320.7,730.6l.7.1,1.1.4-1,1.4.4.8-.5,1,.3,1,.6.4-.1.8.2,1-.1.6-1,.3-.7.8.2.7,1.8.6.8.9h.6l.2.8-.3.8-.8.1-.1,1.5-1.1-.2.3,1-.9.5-.4,1.3-1,.1v.6l-.5.3-.2.7.6.1,1.1.7.2.5-.8.8-.4-.1-1.1.4-.2.3-1,.3-.5,1.5.2.9-.3,1v.8l.7.2.4.4h.6l.4.9.8-1.2.8.9,1.2-.3.2.9,1,.3,1.3.1,1,.8-.1.9-1.2-.3-1.3.4v.9l-.5.1-.8-.4v.9l-1.4-.4-.7.4v.6l.8.5-.5.4v.9l-1.3.3-.2-.5-.8-.1.1.9-.2,1.1-.5.9.7.5-2.6,2,.5.3-.1.6-.7.1-.4,1,.6.9.9.5,2,.7-.1.4.6.6.1.5.5,1,.2,1-.7.6v.8l-.5.5.1,1.3-.5.3.3,2.3-.2.7.5,1-.1.7h-1.1l.1.5-.5,1.7,1.5.2-.1,1.1-1.6.6.5.8,1-.3.3.1-.6,1.3.1,1h-.7l-.5.5h-1l.3.7.5.1v.9l-1.2.2-.4.4-.1.6-1.4.1-.9-.3-.2.6-1.4.2.5,1.3.7,1,1.6.5.7.4.7-.1,1.3.6.9-.4,1.5-.1,1.2.3.6.6,1.7.9.2.5-.3,1-.6-.4-.7.3-.7.6-.8.1-.4.7.2,1.3v.9l-.4,1,.1,1.5.4.7.2.8-.4,1.6.6,1-.1,1,.3.3-.2,1.6-1.4-.3-1.4-.5-1.7.3-.8-.4-2.4-.1-1.2-.4-.4.2-1.9.1-1.3.3-.4.4-.9.2-.9.5-1.5,2.1-.2.9,1.2.1v1.6l-.6,1v.9l1,.1.3.5-.3.6.9.4.8.7-.3,1.2-1.2-.9-.4.4-1.4.4v1.1l-.2.8.2,1.8-.1.9h-1l-.8-.2-.1.5.9.8.3.7.8.5v1.2l.5.6-.2.9.9.7.2.7,1.4-.3.2,1.3,1.1.2-.3,1.2-.6,1.1.7.1.5.8.2.9-.5,2.2-.7.5-.1.9-.5,1.4-1,.2-.1.8-1.3-.2.2-.9H302l-1.2.6-.6-.4-1.2-.2-1.3.1-.5-1-.8-.6-.6-.1-.8-.5-.8.9-.1.4.5,1.3-1,1.2.3.4,1.7.3.5.4.4-.3.8-.1v.9l-.1,1.6-.5.1.2.9-.1.9-.3.3-.2,1.6-1.9.2.6,1.6-.9,2.1-.3,2.7.6.6.7,1.9,1.5.6.7,1.2.5.2.9-.5,2.3.2-.5,1.2H300l-.1,1.6-.9-.5-.6.7-.5.1-.1,1.4.7,1.1,1.5.5v.8l-.6.4.4,1.1.5.2,1-.1.8.2,1-.3h.5l.9,1.1h.7l.5-.4.2-1.3-.3-.2.2-.9.4-.5.2-1,.7-.2,1.5.8h1.7l.4-.4.8-.2v1.9l2.7.3-.1,1.4.7.4.2.9,1.1-.4-.5-2-.4-.1-.5-1.1.2-.8.5-.4,1.1.3.5.3.1,1.2.4.2.8-.4.7.8-.3,1.1.7,2-.4.7-1.2-.4-2.6-.1-.4,1.3-1,.2.2.6,1.2-.4.2.5-.5.5-.3.6-.7.7h-.4l-.4,1,1.9.6-.3.9.4.3,1.2-.1.3.3v.8l-.7.3.3,1.5-.7.5-.2-.6h-1.5l-.2-.6.7-1-.6-.3.3-1.1-.7-.2-.7-1.3-.3-.1-.9.7-.2-.7-1,.7-1.6.2-.8-.2-.6.6-.7-.3-.4-1.5-1.1.1-.7-.3-1.6-.2v-1.1l-.4-.3.3-2.8-2.1-.1-.6-.5-.1.8-.7.3h-.9l-.2.9.9.4.4-.3.7.6.3.9.5.2.2,1-1.2.2-.2.9.6.5.9.4.6.5-.1.9,1.6,1.1.1,1-.8.1-.4,1.5-1.2,1.4.5.2-.1.7.4,1.5.6.4.3-1.3h.5l.9,1,.7.1v-.6l.5-.2.9.3,1.5-.1.2-.6-.6-1,.3-.6-.6-.6-.7-.3.5-.6.9-.2-.3-1.2.7-.6.2.5-.3,1.4.6.2,1.1-1.4.5.1.4,1.9,1.2-.2.7-.4.5,1.1,1.1-.7.7.5,1.7.2-.5.9.7.4.7.1.4,1.5-.2,1.1-.4.6.2.7.9-.1.1-.9h.8l.6.5.3-.6-.3-1.3h.7l.2.8,1.2-.4.5-.4.7.5-.1-1.1,1.2-.6h.7v.9l.9-.4.5.9.1-1.9.5-.4,1.4-.2.2-.8.9-.3.9-.7-.2-1-.4-.2-.1-.8.2-.5,1.7.1.8-.1.1.7.8.5,1.3-1.1.4-.8.5.1-.1.8.1,1.1-.9.3-.3.5.2,1.6.6.2.7-1.5,1.8.3.1-1.2,1,.6.1.6h1.1l.4,1.1-.3.7.3.9-.2.5-.9,1,.8.8-.1,1-.7.1-.7-.3v.9l.5.5v.5l.9-.4,1.4-.1.4.1.1.8,1.1.3v.7l-.5.6.3.8.7-.9.7-.2.7.4,2.2-.3,1,.2,1.3-.1.6.5-.5,1.2-.6,1.3-.1,1.5.3,2.2-.6,1.2,1.5.8-.3,1,.9-.4h.4l.3.6,1-.4.1.6,1.1.6.7.7.2-.7,1.3.1.4.4-.6,1-.2,1.5.5,1.2-1,.2-.1.7-.9.4.1,1.2-.5.5.2.6-1.3.4-.5.4v.6l.3,1.2-.1.6-1.2-.2v1.6l.5.8-.7.4-1-.6-.3.4-1.1-1.2-.6,1.4-.4-.2-.4,1-.1.6-1.4-.3-.7.3V925l-.4,1.7-.3.3-1.8-.4-.3.2-1.3-.4-.2-.6-1-.5-.7-1-1.5-.4-.9,1-.5.1-.8-.9-.6.3-.2.5-.8-.3.2-.8.4-.2-.4-.8-1,.2-.1.3h-2l-.1.3-1.3.8.6.3-.5,1.3-.5.8.4.5-.9.6.2.5-.4.9-.8.2-.3.7-.5-.4-.3.8h-1l.1-.7-.5-.1-2.2.6-.1.5.3.8-.5.5v.7l-.4,1,.3,1.7.9.2-.1.4-.9.8.7.1.7-.7.3.3-.3,2.5-.4,1.8-1.3,1-.4,1-1.3.9-.8-.1-.8.4-.3.9.4.4-.3.8.6.4,1,.2.9-.3.6.2,1.7-.3.8.4.9-.1,2.4.7.5.7v.6l.9.7-.7,1.4-.9.6-1,1.5-.9,2v.5l-.9-.1-2.2.6-.9-.2-.8.3-1.1-.3-.5,1.4h-.8l.1,1.8-.9,2.3-.6.4-1-.5-.9-.1-.4.5-.6.2-1.4-1.4-.3.3-1.2-.4-.5.6h-1.3l-.8.3-1,.1-.8.4-.6,1.3h-.7l-.9-1.2-.3-.7-1.2-.9-1,.5-.6.9-.5-.6-1.5-.1-.4.6-.2,1.5-1,.9-.8,1.7v.7l.7.9-.5.7-.6-.5-2.3-.3-4.3.1-.6.1-1.8-.4-.5-2-1.2-1-1,.7-.8.8-1-.2-.4-.1-.3-.7v-.8l.6-.5-.5-1-1.1.5-.6-.2-.7.4-.8-.5-.4-1.1-.5-.3-.3-.6-1.1.2-.9-.2-.4-.6-.1-1.1-.6-.5-1.6.2-.4.5-.6-.2v-4.2l-1.2.3-1.5,1-1.8.3-1-.3-.6.1-1.8-.4-.9-.5-.9-1,.1-.6-1-1-.1-1.5-1.1-.2-1.6.6-.1-.3-.2-.4-.3-.2-.2-.5-.7.4h-.3l-.7-1v-.4l-.2-.3-.3-.1-.1-.1-.6-.1-.5.1-.1.1-.3-.3-.6-.6-.5-.6-.2-.2-.1-.1-.3-.2.2-.3-.4-.4-.1-.3-.1-.2v-.1l-.3-.5v-.1l-.3-.3-.3-.1-.1-.1-.3-.6-.5-.4-.9.2h-.4l-.4.2.4-.5-.2-.3-.4-1,.1-.3.2-.6-.1-.3-.5-.1-.1-.1-.2-.1-.5-.3-.5-.7.1-1.3-.1-.2.9.2.4-.1.4-.2.3-.4-.3-1.1-.4.2-.2-.2-.4.2h-.2l-.1.2-.1.3-.6.7h-.5v-.3l-.2-.7-.5-.2-.6-.2v-.7h-.8l-.3-1.3.7-.7.8.2-.5-1.1-.8-.4-1.3,1.6-.9-.3-.1-.8-.4-.3.1-.7-.6-.1-1,.3-.1-.8.3-.8-.5-.3-1.1-.1-.3-.5h-.7v.9l-.5.3-.7-.1-.1-1,.1-.9-.4-.2-1.2.2-.4-.9.6-.7-.1-.9-1.2.4-.5-.2-2.1.8-.9.1-.8-1.5-.5-1.7-.3-.3-.8-4.2-.6-2.8.1-.4-.4-1.1-.4-1.9-.8-2.6-.4-1.9v-.8l-.3-1.2-.6-.6-.1-3.6-.1-.2-.4-3.1-.6-3.7-.6-1.1-.3-2.1-.9-4.1-.5-.9-.1-.7-.9-1.5h-.6l-1.1-1.3-.5-1.2-.1-1-.4-1.3v-.8l-.7-3.1-.4-.1-1.4-4.1-.3-2-.4-1.6-1.1-2.9v-.7l.9-.9-.6-.4-.6.6.1.7-1.3.1-.2-1.2-1.3-2.6.4-.2-.2-1,.1-.6-1.1-2.2-.4-.3-1.4.8-.6-.9-.7-.2-.5-.8-1.2-.2-.6-.7,1.2-.4-.1-.8-.8-1.5.1-.8,1-.4.5-.1,1,.3v-.3l-.4-.7.2-.2v-.2l.5-.2.4.4.2.2v.3l.6-.1.7-.5.1-.4.2-.1.4.1.2-.3.2-.3v-.8l-.1-.1.4-.6.3-.2-.1-.3.5-.3-.5-1.1-.2-1.1.4-.7-.1-.8.7-.7.4-.7-.7-1.6-1.3-.5.4-1.1.9-.4,1.1.1.2-.4-.6-1.3.2-1.3-.8-.5h-.5l-.5-1.5.2-.7-.9-1.6.9-.9.2-.4-.5-1-.6-.5.3-.8.1-1-.3-.2-.1-1.1-.8-.4-.3.6-1.6-.8-.1.7-1,.2-.6-.1-1-.6,1.2-.4.3-.8-.2-.8.8-.4.3-.6h1l.5-.3.2-.7.8-.1-.2.8.3.5,1-.3.7.5,1-.6.2-.5.8.2.4-.3.4-.8-.2-.6.6-1.2-1.1-.1-.1-.4.6-.5h1l-.2-.9,1.4-1.8.5-1.2v-.5l.5-.9.2-.8-1-.4-1,.3-.7.5-.7-.9,1.2-1.1,1-.7,1,.3.9.5.3-.9-.3-1,.3-1.4.5-.3-.3-.8.1-.4-.8-.8-2.1-.4v-.8l-1.1.1-.3-.6-.6.2-.9.8-.3-.5.7-.4-.5-1.8-.4-.4.4-1.3,1.2-.1-.2-.4-.7.1-.2-1.8h-.5l-1-.8.2-1-.4-.1-.6,1-.2-.8.8-.3-.4-.5v-.8l1.1.5.8-.9,1.8,1,.4-.3v-.9l.3-.6.8-.2.4-.6,1.1-.2-.2-1.7.4-.3.6,1.2,1.9-.2v1.5h.5l-.2,1.1.5.3,1.4-.6.9-.5V791l.7.2,1.1-.6-1.2-.7.4-1,.8-.4.1-1.4h1.3l1.5-1.2,2.4-.4.2-.4H231l-.2-.5-.2-2.5,1.3-.9.5.1.1-1H232l-.9-.7.4-.6.6.4,1,.1.7-.6,1.5.2,1.5-.3.1.9,1.5,1v.7l1.1.3.7-.1-.3,1h1.6l.4-.8.9.1.5-.5.3-.9-.2-.3-.1-1.6h2.1l.9-.6.8-.2,1.2.4.5-.5.8-.3.8.8.1.7.8-.3.4-.5,1.4.1v-1.5l1.3.1.1,1.2.9.1.3.6,1.1-.5-.3-.7.1-1.9-.6.2-.2-.5,1.1-.9-.3-1.5h-.7v-.7l-.7-1v-.9l1.1-1-.2-2-.9-.1-.2-.8-.7-.3.4-.9-.1-.5-1-.3-.2-1.2,1.3-.3-.1-1.1.4-1.3.3-.7.9.7.7.2v.6l.3.9.6.1,1-.5,1.1.6.4,1,1,.3.4-1.8h.6l.6.4.1.7,1.2-.6-.1,1.9.6.3.7.7,1.4-.4,1-.1.5-.4,1.6-.1.6.8.8-1.1.6-.2,1.5.9v1.5l.5-.5-.2-1.2.3-.3,1.6-.3,1.4.3.2.9h1.4l-.1-.4,1-.3.3,1.4h1l.4-.9.6-.4-.1-.8-1.6-.2.4-2.1-1.3.1-.1-1.3.6-.2-.1-1.4.7-.2-.2-.7-.7-.2-.3-1.9,2.9-.3.4-1.4,1.9-.9.1-1.6,1.3-.1v-1.5l1.2-.2.3.8v1.3l.6-.1.4-.7.2-1h.8l.1.9.9.5.2,1,1,.3v-.9l.9-1.5v-1.4l.7.2.8-.2.5-.5.4-1-.8-.8-.9-.3.1-1.4h.8l.3.7,1,.3.2-.5,1.5-.5,1,.2.6-.8h.6l-.1-.8.2-1.8-.1-1.7,1.2-.1-.1-1.6.6-.6-.5-.4-1-.3.7-1.3.4-1.1,1.2-.1.3.7.8.2.4-.8.5.4.3.7h1.7l.3-.5-.7-1,.9-.4h.6l.6-1.7.7-1,1,.1-.4-1.2.5-.1.6-1.1.2-1.5.2-.8,2.5-1.1.4-.6.6.9.8.1.2,1,1,.1.3.7-.6.5v.9l-.8.6-.2.5,1.6.3.9-.2.1.9.9.8.9-.2.7-.6-.1-.7.4-.2,1,.5Z" transform="translate(-202.55 -724.651)" fill="#7c7c7c" stroke="#000" stroke-linecap="round" stroke-linejoin="round" stroke-width="0.1"/>
</svg>
