<?xml version="1.0" encoding="utf-8"?>
<!-- Generator: Adobe Illustrator 24.0.1, SVG Export Plug-In . SVG Version: 6.00 Build 0)  -->
<svg version="1.1" id="Layer_1" xmlns="http://www.w3.org/2000/svg" xmlns:xlink="http://www.w3.org/1999/xlink" x="0px" y="0px"
	 viewBox="0 0 503.2 356.2" style="enable-background:new 0 0 503.2 356.2;" xml:space="preserve">
<style type="text/css">
	.st0{opacity:0.24;fill:#0031FF;enable-background:new    ;}
	.st1{fill:#0031FF;}
	.st2{fill:url(#SVGID_1_);}
	.st3{fill:url(#SVGID_2_);}
	.st4{fill:url(#SVGID_3_);}
	.st5{fill:url(#SVGID_4_);}
	.st6{fill:url(#SVGID_5_);}
	.st7{fill:url(#SVGID_6_);}
	.st8{fill:#FFFFFF;}
	.st9{fill:#606161;}
	.st10{fill:url(#SVGID_7_);}
	.st11{fill:url(#SVGID_8_);}
	.st12{fill:url(#SVGID_9_);}
	.st13{fill:url(#SVGID_10_);}
	.st14{fill:url(#SVGID_11_);}
	.st15{fill:url(#SVGID_12_);}
	.st16{fill:url(#SVGID_13_);}
	.st17{fill:url(#SVGID_14_);}
	.st18{fill:url(#SVGID_15_);}
	.st19{fill:url(#SVGID_16_);}
	.st20{fill:url(#SVGID_17_);}
	.st21{fill:url(#SVGID_18_);}
	.st22{opacity:0.22;fill:#606161;enable-background:new    ;}
	.st23{fill:url(#SVGID_19_);}
	.st24{fill:url(#SVGID_20_);}
	.st25{fill:url(#SVGID_21_);}
	.st26{fill:url(#SVGID_22_);}
</style>
<title>Career 1</title>
<path class="st0" d="M226.1,130.9c-25.1-7.9-53.5-12.7-77.1-1c-30.6,15.1-43.4,52.3-70.4,73.1c-6.5,5-13.8,9.1-18.7,15.7
	c-3.6,4.9-5.5,10.9-6.5,16.9c-3.3,19.7,3.4,40.6,17,55.2s33.7,22.7,53.7,22.2s38.6-8.9,57.9-13.3c60.1-13.7,121.8,11.5,183.4,13.1
	c14.6,0.4,30.7-1.2,40.9-11.7c11.9-12.3,11.4-32.3,21-46.5c5.3-7.8,13.4-13.3,20.2-19.8s12.9-15.1,12.2-24.6
	c-0.8-10.1-9.3-18.2-18.6-22.3s-19.7-5.1-29.5-7.6c-19.6-4.9-37.3-15.3-56-23c-21.7-8.8-39.7-6.9-62.1-7.8
	C270.4,148.6,247.8,137.7,226.1,130.9z"/>
<path class="st1" d="M350.1,168.7l28.9,1.6c1,0.1,1.7,0.9,1.7,1.9l-0.1,1.2c-0.1,1-0.9,1.7-1.9,1.7l-28.9-1.6
	c-1-0.1-1.7-0.9-1.7-1.9l0.1-1.2C348.2,169.4,349.1,168.6,350.1,168.7z"/>
<linearGradient id="SVGID_1_" gradientUnits="userSpaceOnUse" x1="367.9475" y1="153.6813" x2="400.6875" y2="131.7813" gradientTransform="matrix(1 0 0 -1 -5.1825 324.476)">
	<stop  offset="0" style="stop-color:#010101;stop-opacity:0"/>
	<stop  offset="0.95" style="stop-color:#010101"/>
</linearGradient>
<path class="st2" d="M350.1,168.7l28.9,1.6c1,0.1,1.7,0.9,1.7,1.9l-0.1,1.2c-0.1,1-0.9,1.7-1.9,1.7l-28.9-1.6
	c-1-0.1-1.7-0.9-1.7-1.9l0.1-1.2C348.2,169.4,349.1,168.6,350.1,168.7z"/>
<path class="st1" d="M349.9,163.7l28.9,1.6c1,0.1,1.7,0.9,1.7,1.9l-0.1,1.2c-0.1,1-0.9,1.7-1.9,1.7l-28.9-1.6
	c-1-0.1-1.7-0.9-1.7-1.9l0.1-1.2C348.1,164.4,348.9,163.6,349.9,163.7z"/>
<linearGradient id="SVGID_2_" gradientUnits="userSpaceOnUse" x1="369.4536" y1="157.7614" x2="368.0735" y2="141.9214" gradientTransform="matrix(1 0 0 -1 -5.1824 324.4814)">
	<stop  offset="0" style="stop-color:#010101;stop-opacity:0"/>
	<stop  offset="0.95" style="stop-color:#010101"/>
</linearGradient>
<path class="st3" d="M349.9,163.7l28.9,1.6c1,0.1,1.7,0.9,1.7,1.9l-0.1,1.2c-0.1,1-0.9,1.7-1.9,1.7l-28.9-1.6
	c-1-0.1-1.7-0.9-1.7-1.9l0.1-1.2C348.1,164.4,348.9,163.6,349.9,163.7z"/>
<path class="st1" d="M351.4,158.8l28.9,1.6c1,0.1,1.7,0.9,1.7,1.9l-0.1,1.2c-0.1,1-0.9,1.7-1.9,1.7l-28.9-1.6
	c-1-0.1-1.7-0.9-1.7-1.9l0.1-1.2C349.6,159.5,350.4,158.7,351.4,158.8z"/>
<linearGradient id="SVGID_3_" gradientUnits="userSpaceOnUse" x1="371.1001" y1="165.8905" x2="369.6201" y2="136.0205" gradientTransform="matrix(1 0 0 -1 -5.1767 324.4762)">
	<stop  offset="0" style="stop-color:#010101;stop-opacity:0"/>
	<stop  offset="0.95" style="stop-color:#010101"/>
</linearGradient>
<path class="st4" d="M351.4,158.8l28.9,1.6c1,0.1,1.7,0.9,1.7,1.9l-0.1,1.2c-0.1,1-0.9,1.7-1.9,1.7l-28.9-1.6
	c-1-0.1-1.7-0.9-1.7-1.9l0.1-1.2C349.6,159.5,350.4,158.7,351.4,158.8z"/>
<linearGradient id="SVGID_4_" gradientUnits="userSpaceOnUse" x1="311.87" y1="146.4074" x2="443.54" y2="146.4074" gradientTransform="matrix(1 0 0 -1 -5.18 324.48)">
	<stop  offset="0" style="stop-color:#010101;stop-opacity:0"/>
	<stop  offset="0.95" style="stop-color:#010101"/>
</linearGradient>
<path class="st5" d="M359.8,173.4c-17.8-1.7-36.4-2.5-53.1,3.9l7.7,3.6c0.8,0.5,1.8,0.8,2.7,0.8c1-0.1,2-0.4,2.9-0.8
	c6.3-2.6,13.3-2.6,20.1-2.3c27.9,1.1,55.7,6.4,83.7,5.1c5-0.2,10.1-0.7,14.6-2.8c-6.8-2.1-13.8-4.9-20.7-6.3
	c-5.2-1-10.3,0.8-15.6,1.1C387.7,176.6,373.9,173.4,359.8,173.4z"/>
<path class="st1" d="M362.6,174.6c-17.8-1.7-36.4-2.5-53.1,3.9l7.7,3.6c0.8,0.5,1.8,0.8,2.7,0.8c1-0.1,2-0.4,2.9-0.8
	c6.3-2.6,13.3-2.6,20.1-2.3c27.9,1.1,55.7,6.4,83.7,5.1c5-0.2,10.1-0.7,14.6-2.8c-6.8-2.1-13.8-4.9-20.7-6.3
	c-5.2-1-10.3,0.8-15.6,1.1C390.5,177.8,376.7,174.6,362.6,174.6z"/>
<path class="st1" d="M358.2,176.7c-17.8-1.7-36.4-2.5-53.1,3.9l7.6,3.6c0.8,0.5,1.8,0.8,2.7,0.8c1-0.1,2-0.4,2.9-0.8
	c6.3-2.6,13.3-2.6,20.1-2.3c27.9,1.1,55.7,6.4,83.7,5.1c5-0.2,10.1-0.7,14.6-2.8c-6.8-2.1-13.8-4.9-20.7-6.3
	c-5.2-1-10.3,0.8-15.6,1.1C386.1,179.9,372.3,176.7,358.2,176.7z"/>
<linearGradient id="SVGID_5_" gradientUnits="userSpaceOnUse" x1="310.25" y1="143.1132" x2="441.92" y2="143.1132" gradientTransform="matrix(1 0 0 -1 -5.18 324.48)">
	<stop  offset="0" style="stop-color:#010101;stop-opacity:0"/>
	<stop  offset="0.95" style="stop-color:#010101"/>
</linearGradient>
<path class="st6" d="M358.2,176.7c-17.8-1.7-36.4-2.5-53.1,3.9l7.6,3.6c0.8,0.5,1.8,0.8,2.7,0.8c1-0.1,2-0.4,2.9-0.8
	c6.3-2.6,13.3-2.6,20.1-2.3c27.9,1.1,55.7,6.4,83.7,5.1c5-0.2,10.1-0.7,14.6-2.8c-6.8-2.1-13.8-4.9-20.7-6.3
	c-5.2-1-10.3,0.8-15.6,1.1C386.1,179.9,372.3,176.7,358.2,176.7z"/>
<path class="st1" d="M361,177.9c-17.8-1.7-36.4-2.5-53.1,3.9l7.6,3.7c0.8,0.5,1.8,0.8,2.7,0.8c1-0.1,2-0.4,2.9-0.8
	c6.3-2.6,13.3-2.6,20.1-2.4c27.9,1.1,55.7,6.4,83.7,5.1c5-0.2,10.1-0.7,14.6-2.8c-6.8-2.1-13.7-5-20.7-6.3c-5.2-1-10.3,0.8-15.6,1.1
	C388.9,181.1,375.1,177.9,361,177.9z"/>
<linearGradient id="SVGID_6_" gradientUnits="userSpaceOnUse" x1="412.5566" y1="90.4278" x2="399.5166" y2="171.0378" gradientTransform="matrix(1 0 0 -1 -5.18 324.48)">
	<stop  offset="0" style="stop-color:#E5C6D6"/>
	<stop  offset="0.42" style="stop-color:#EAD4D0"/>
	<stop  offset="1" style="stop-color:#F0E9CB"/>
</linearGradient>
<path class="st7" d="M453.3,181.1c-2.8-1.4-5.4-3-8-4.7c-14.3-9-30.5-14.5-47.3-16c-0.6-0.1-1.3,0-1.9,0.2c-1.2,0.6-1.2,2.3-0.8,3.5
	c2.2,6.9,11.5,8,16.6,13.2c0.6,0.5,0.9,1.2,1,2c0,1.4-1.8,2.1-3.2,2.4c-17.3,3.3-35.3,6.5-52.5,2.4c-7.5-1.8-14.7-5.1-22.4-5.9
	c-0.9-0.1-1.7-0.1-2.6,0.2c-1.4,0.9-2,2.6-1.5,4.2c0.6,1.5,1.6,2.8,2.9,3.8c9,7.8,20.7,11.5,32,15c14.7,4.6,29.7,9.2,45.1,9.4
	c4.8,0.1,9.5-0.3,14.2-0.7l33.9-2.6c0.9,0,1.8-0.2,2.7-0.6c1.1-0.7,1.9-1.7,2.4-2.8c2.8-5.2,4.2-11,4-16.8
	C467.9,181.4,457.7,183.1,453.3,181.1z"/>
<path class="st8" d="M464.1,173c-0.3-0.1-0.7-0.1-1,0c-0.2,0.1-0.4,0.4-0.6,0.6c-2.3,4-2.7,8.7-4.3,13c-0.8,2.2-1.9,4.3-2.7,6.6
	c-0.7,2.4-1.2,4.8-1.6,7.3c-0.7,3.7-1.1,7.5-1.2,11.3c-0.1,0.5,0,0.9,0.3,1.3c0.3,0.3,0.6,0.5,1,0.6c3.8,1.4,7.8,2.1,11.9,2
	c0.3,0,0.6-0.1,0.8-0.2c0.2-0.2,0.3-0.4,0.4-0.7c2-6.7,3.7-13.5,5.1-20.4c0.7-3.5,1.3-6.9,1.8-10.4c0.3-1.8,0.6-3.6,0.7-5.3
	s-0.6-2.2-2.2-3C469.9,174.5,467,173.6,464.1,173z"/>
<path class="st9" d="M136.5,143.5l-0.2-2.8c0-2.2,1.7-4,3.9-4.3l6.5-0.7c2.2-0.2,4.3,1.3,4.7,3.5l0.5,2.7l-2.2,0.4l-0.5-2.7
	c-0.2-1.1-1.2-1.8-2.3-1.7l-6.5,0.7c-1,0.1-1.8,1-1.9,2l0.2,2.7L136.5,143.5z"/>
<path class="st9" d="M155.6,189.5c-1.9,6.6-5,12.8-7,19.4c-2.2,7.7-2.7,15.7-3.2,23.7c0.8,1.4,2.8,1.5,4.2,0.7
	c1.3-0.9,2.3-2.1,3-3.6c13.7-23.6,25.4-48.3,34.9-73.9l27.7,4.6c1.5-0.1,2.8,0.9,2.9,2.4c0,0.3,0,0.6-0.1,0.9l-0.4,29.1l6.7,0.1
	c1,0.3,2.1-0.2,2.4-1.2c0.1-0.2,0.1-0.4,0.1-0.7l6.4-39.6c0.4-2.2,0.7-4.6-0.4-6.5c-0.9-1.3-2.1-2.4-3.5-3.1
	c-13.1-8.1-28.4-12.2-43.8-11.7c-4.4,0.1-8.9,0.6-13.1-0.4c-6.8-1.7-9.7-6.2-12,2.4c-1.7,6.3-2,12.8-2.2,19.2
	C158,164.1,159.1,177.1,155.6,189.5z"/>
<linearGradient id="SVGID_7_" gradientUnits="userSpaceOnUse" x1="191.5538" y1="137.925" x2="154.6938" y2="165.995" gradientTransform="matrix(1 0 0 -1 -5.18 324.48)">
	<stop  offset="0" style="stop-color:#010101;stop-opacity:0"/>
	<stop  offset="0.95" style="stop-color:#010101"/>
</linearGradient>
<path class="st10" d="M155.6,189.5c-1.9,6.6-5,12.8-7,19.4c-2.2,7.7-2.7,15.7-3.2,23.7c0.8,1.4,2.8,1.5,4.2,0.7
	c1.3-0.9,2.3-2.1,3-3.6c13.7-23.6,25.4-48.3,34.9-73.9l27.7,4.6c1.5-0.1,2.8,0.9,2.9,2.4c0,0.3,0,0.6-0.1,0.9l-0.4,29.1l6.7,0.1
	c1,0.3,2.1-0.2,2.4-1.2c0.1-0.2,0.1-0.4,0.1-0.7l6.4-39.6c0.4-2.2,0.7-4.6-0.4-6.5c-0.9-1.3-2.1-2.4-3.5-3.1
	c-13.1-8.1-28.4-12.2-43.8-11.7c-4.4,0.1-8.9,0.6-13.1-0.4c-6.8-1.7-9.7-6.2-12,2.4c-1.7,6.3-2,12.8-2.2,19.2
	C158,164.1,159.1,177.1,155.6,189.5z"/>
<path class="st1" d="M236.6,105.1c0,1,0,1.9,0,2.8c0,0.4,0,0.8,0,1.1l-15.6,4.1c-3.1,0.8-6.4,1.6-9.4,0.6c-1.9-0.7-3.6-1.8-5.1-3.2
	c-3.2-2.5-6.1-5.2-8.7-8.3c-0.5-0.6-0.9-1.2-1.4-1.8c-2.2-3-3.8-6.4-4.7-10.1c-0.3-1.2-1.1-2.1-0.3-3.1c0.6-0.8,2.5-0.9,3.4-0.8
	c1.6,0.2,3.1,0.8,4.4,1.6c6.6,3.7,12.1,9.1,17.9,14.1c0.5,0.4,1,0.8,1.6,1.1c0.8,0.3,1.7,0.5,2.6,0.5l14.6,0.7c0.2,0,0.4,0,0.5,0.2
	C236.6,104.7,236.6,104.9,236.6,105.1z"/>
<path class="st1" d="M190.2,131.9c-1.6,2.6-10.8,1.5-17.2-0.2c-2.1-0.4-4-1.2-5.8-2.3c-1.3-1-2.8-2.2-3-3.8c-0.1-0.9,0-1.8,0.2-2.6
	c1.5-7.5,3.1-14.9,4.6-22.4l0,0c0.4-1.7,0.7-3.4,1.1-5.1c0.3-1.8,0.8-3.5,1.5-5.2c0.7-1.6,1.6-3,2.7-4.4c1-1.3-0.3-3.6,1.3-3.7
	c4.8-0.4,7.2-0.5,9.6,0.6c3,1.3,7.7,2.4,10.7,3.8c0.9,0.4,0.1,1.3,0.7,2.1c0.4,0.7,0.7,1.5,0.8,2.3
	C199.7,101.6,195.9,122.6,190.2,131.9z"/>
<polygon class="st9" points="180.1,81.9 180.8,92.9 186,90.2 189.2,92.7 189,91.2 180.8,82 "/>
<polygon class="st1" points="188.7,83.8 189.3,92 186,89.3 "/>
<linearGradient id="SVGID_8_" gradientUnits="userSpaceOnUse" x1="186.34" y1="240.5582" x2="194.4754" y2="240.5582" gradientTransform="matrix(1 0 0 -1 -5.18 324.48)">
	<stop  offset="0" style="stop-color:#E5C6D6"/>
	<stop  offset="0.42" style="stop-color:#EAD4D0"/>
	<stop  offset="1" style="stop-color:#F0E9CB"/>
</linearGradient>
<path class="st11" d="M181.3,83c-0.4,1.1-0.1,2.4,0.7,3.2c0.5,0.4,1,0.7,1.6,0.8c0.7,0.2,1.6,2.3,2.3,2.3c0.4,0,0.8-1.5,1.1-1.7
	c0.3-0.2,0.3-1.1,0.5-1.5l1.4-2.4c0.3-0.4,0.4-0.8,0.3-1.3c-0.2-0.4-0.5-0.7-0.9-0.9l-2.5-1.5c-0.9-0.6-3.8-2.5-3.9-1.2
	C181.8,80.3,181.6,81.7,181.3,83z"/>
<linearGradient id="SVGID_9_" gradientUnits="userSpaceOnUse" x1="191.6001" y1="238.79" x2="191.9501" y2="256.3" gradientTransform="matrix(1 0 0 -1 -5.18 324.48)">
	<stop  offset="0" style="stop-color:#010101;stop-opacity:0"/>
	<stop  offset="0.95" style="stop-color:#010101"/>
</linearGradient>
<path class="st12" d="M184.1,81.6c0,0-0.1,4.7,2.7,5.6c0.9-0.9,1.5-2.1,1.9-3.3C189.6,81.5,184.1,81.6,184.1,81.6z"/>
<path class="st1" d="M221.8,30c-5.9,0.7-11.7,3.6-17.6,2.6c-2.9-0.5-5.6-1.9-8.4-2.9c-8-2.8-16.8-2.3-24.4,1.5
	c4.9,1.3,10,3.2,13.1,7.2c3.7,4.7,3.9,11.5,7.5,16.3c2.9,3.8,7.5,5.8,12.2,6.5s9.4,0.1,14.1-0.4c1.9-0.2,4-0.4,5.6,0.6
	s2.3,2.8,3.3,4.3c3.1,5,10.5,7.4,16.4,6.3c0.4-8.8,4.5-24.6,0.8-32.2C240.9,32.5,229.2,29.2,221.8,30z"/>
<path class="st1" d="M487.8,217.9c-2.7,3.3-5.6,6.5-8.7,9.6c-3.3-0.8-6.6-1.4-10-1.9c-0.8,0-1.5-0.3-2.2-0.8
	c-0.6-0.8-0.8-1.8-0.6-2.8c1-16.9,2.9-33.7,5.8-50.3l18.4,2.6c0.9,0.1,8.4,1.1,11.5,2.1C504,191.2,497.2,206.3,487.8,217.9z"/>
<rect x="208.1" y="199.7" class="st1" width="89.8" height="24.1"/>
<rect x="118.3" y="242.8" class="st1" width="89.8" height="24.1"/>
<rect x="37" y="279.8" class="st1" width="89.8" height="24.1"/>
<rect x="82.8" y="321.1" class="st1" width="89.8" height="24.1"/>
<linearGradient id="SVGID_10_" gradientUnits="userSpaceOnUse" x1="186.8377" y1="248.5849" x2="201.58" y2="248.5849" gradientTransform="matrix(1 0 0 -1 -5.18 324.48)">
	<stop  offset="0" style="stop-color:#E5C6D6"/>
	<stop  offset="0.42" style="stop-color:#EAD4D0"/>
	<stop  offset="1" style="stop-color:#F0E9CB"/>
</linearGradient>
<path class="st13" d="M196,76.2c0.2,0.3,0.4,0.7,0.4,1.1c0,0.6-0.6,1.1-1.1,1.4c-1.2,0.7-2.1,1.7-2.9,2.9c-0.5,0.9-0.7,2-1.6,2.5
	c-1.1,0.8-2.6,0.3-3.9-0.2c-1.6-0.7-5.3-4-5.4-4.7c-0.2-2,0.8-4.3,1.5-6.1c0.9-2.2,2.2-4.3,4.4-5.3c1.6-0.7,3.3-0.7,4.9,0.1
	C196.5,69.7,194.4,73,196,76.2z"/>
<path class="st9" d="M190.6,63.1c2.7,0.6,5.1,2,7,4c0.4,0.4,0.6,0.8,0.7,1.3c0,0.6-0.2,1.2-0.7,1.6c-1.4,1.3-3.3,1.9-5.2,1.4
	c-1-0.3-2-0.5-3-0.4c-1,0.3-1.8,1-2.4,1.9c-0.8,1.1-1.4,2.3-1.8,3.6c-0.2,0-0.4-0.3-0.4-0.5c0-0.2,0-0.5-0.1-0.7
	c-0.2-0.3-0.6-0.3-0.8-0.1c-0.2,0.2-0.4,0.5-0.5,0.8c-0.2,0.8,0.1,1.6,0.6,2.2c-0.8,0-1.6,0.3-2.1,1c-0.1,0.1-0.2,0.2-0.3,0.2
	c-0.1,0-0.1-0.1-0.1-0.1c-1.5-2.3-2-5.2-1.2-7.9c0.2-0.8,0.5-1.6,1-2.3c0.3-0.5,0.8-0.9,1.3-1.2c0.4-0.2,1.2-0.2,1.6-0.5
	c0.5-0.6,0.3-2,0.6-2.7C185.6,62.4,188.8,62.7,190.6,63.1z"/>
<linearGradient id="SVGID_11_" gradientUnits="userSpaceOnUse" x1="196.0735" y1="249.7829" x2="186.8235" y2="260.7329" gradientTransform="matrix(1 0 0 -1 -5.18 324.48)">
	<stop  offset="0" style="stop-color:#010101;stop-opacity:0"/>
	<stop  offset="0.95" style="stop-color:#010101"/>
</linearGradient>
<path class="st14" d="M190.6,63.1c2.7,0.6,5.1,2,7,4c0.4,0.4,0.6,0.8,0.7,1.3c0,0.6-0.2,1.2-0.7,1.6c-1.4,1.3-3.3,1.9-5.2,1.4
	c-1-0.3-2-0.5-3-0.4c-1,0.3-1.8,1-2.4,1.9c-0.8,1.1-1.4,2.3-1.8,3.6c-0.2,0-0.4-0.3-0.4-0.5c0-0.2,0-0.5-0.1-0.7
	c-0.2-0.3-0.6-0.3-0.8-0.1c-0.2,0.2-0.4,0.5-0.5,0.8c-0.2,0.8,0.1,1.6,0.6,2.2c-0.8,0-1.6,0.3-2.1,1c-0.1,0.1-0.2,0.2-0.3,0.2
	c-0.1,0-0.1-0.1-0.1-0.1c-1.5-2.3-2-5.2-1.2-7.9c0.2-0.8,0.5-1.6,1-2.3c0.3-0.5,0.8-0.9,1.3-1.2c0.4-0.2,1.2-0.2,1.6-0.5
	c0.5-0.6,0.3-2,0.6-2.7C185.6,62.4,188.8,62.7,190.6,63.1z"/>
<linearGradient id="SVGID_12_" gradientUnits="userSpaceOnUse" x1="240.63" y1="220.7465" x2="254.17" y2="220.7465" gradientTransform="matrix(1 0 0 -1 -5.18 324.48)">
	<stop  offset="0" style="stop-color:#E5C6D6"/>
	<stop  offset="0.42" style="stop-color:#EAD4D0"/>
	<stop  offset="1" style="stop-color:#F0E9CB"/>
</linearGradient>
<path class="st15" d="M241.8,102.5c0,0.2-0.1,0.3-0.2,0.5c-0.1,0.1-0.3,0.2-0.4,0.2l-2.9,0.7c-0.6,0.1-1.3,0.3-1.9,0.6
	c-0.6,0.3-1,0.9-1.1,1.6c0,0.9,0.6,1.6,1.4,1.9c0.8,0.3,1.6,0.4,2.4,0.4c1.6,0.1,3.3,0,4.9-0.1c1.2-0.1,2.3-0.4,3.3-1
	c1.2-0.9,1.8-2.3,1.6-3.7c-0.2-1.4-1.6-3.6-3.1-4.1C243.7,98.6,242.3,100.7,241.8,102.5z"/>
<path class="st1" d="M179.3,85.1c-0.5,1.5-0.9,3-1.2,4.6c-0.2,2.4-1.1,4.7-2.6,6.5c-0.9,1.2-2,2.2-3.3,3c-4.4,2.8-10.4,1.8-15,4.2
	c-0.8,0.4-1.6,0.9-2.2,1.6c-1.3,1.4-1.6,3.4-1.9,5.4c-1,5.8-2.3,11.6-3.7,17.3c-0.1,0.9-0.5,1.7-1.1,2.4c-1.4,1.6-4,1.1-6,0.5
	l0.4-15.3c0-3.5,0.3-7,1.1-10.4c0.9-3.4,3.3-6.1,5.7-8.6c3.4-3.4,12.2-10.7,22-13.3l1.9-0.4c1.9-0.4,3.8-0.6,5.6-0.6
	c0.1,0,0.2,0,0.3,0.1C179.8,82.3,179.7,83.6,179.3,85.1z"/>
<linearGradient id="SVGID_13_" gradientUnits="userSpaceOnUse" x1="168.1367" y1="215.5472" x2="134.2567" y2="254.9472" gradientTransform="matrix(1 0 0 -1 -5.18 324.48)">
	<stop  offset="0" style="stop-color:#FFFFFF;stop-opacity:0"/>
	<stop  offset="0.95" style="stop-color:#FFFFFF"/>
</linearGradient>
<path class="st16" d="M179.3,85.1c-1.6,0.3-4,0.7-7.6,1.3c-10.8,1.8-22.8,14.5-24.8,18.4s-2.2,23.6-2.2,23.6l-2.5,2.2l0.4-15.3
	c0-3.5,0.3-7,1.1-10.4c0.9-3.4,3.3-6.1,5.7-8.6c3.4-3.4,12.2-10.7,22-13.3l1.9-0.4c1.9-0.4,3.8-0.6,5.6-0.6c0.1,0,0.2,0,0.3,0.1
	C179.8,82.3,179.7,83.6,179.3,85.1z"/>
<linearGradient id="SVGID_14_" gradientUnits="userSpaceOnUse" x1="204.8627" y1="185.1924" x2="-63.9172" y2="499.0423" gradientTransform="matrix(1 0 0 -1 -5.18 324.48)">
	<stop  offset="0" style="stop-color:#010101;stop-opacity:0"/>
	<stop  offset="0.95" style="stop-color:#010101"/>
</linearGradient>
<path class="st17" d="M185.7,94.3c0,0-1.4,7.6-6.5,7.7c-2.2,0-4.4-0.4-6.4-1.1c0.2,3.1-6.4,24.4-4.6,26.5c1.4,1.6,3,3.1,4.8,4.4
	c-2.1-0.4-4-1.2-5.8-2.3c-1.3-1-2.8-2.2-3-3.8c-0.1-0.9,0-1.8,0.2-2.6c1.5-7.5,3.1-14.9,4.6-22.4l0,0c0.4-0.2,0.9-0.4,1.4-0.5
	c-1.7-0.6-3.4-1.1-5.2-1.4c-4.1-0.6-8.2-0.6-12.2,0l-2.4-3.3l2.9-2.6l25.9,6.3L185.7,94.3z"/>
<linearGradient id="SVGID_15_" gradientUnits="userSpaceOnUse" x1="145.3736" y1="190.0061" x2="152.5136" y2="190.0061" gradientTransform="matrix(1 0 0 -1 -5.18 324.48)">
	<stop  offset="0" style="stop-color:#E5C6D6"/>
	<stop  offset="0.42" style="stop-color:#EAD4D0"/>
	<stop  offset="1" style="stop-color:#F0E9CB"/>
</linearGradient>
<path class="st18" d="M146.8,132.1c-0.3,1-0.2,2.1,0.2,3.1c0.1,0.2,0.3,0.4,0.4,0.7c0.1,0.3,0,0.7-0.3,0.9c-0.3,0.2-0.7,0.2-1,0.1
	c-0.2-0.1-0.3-0.2-0.5-0.3c-0.5-0.1-0.8,0.5-0.9,0.9c-0.2,0.9-0.5,2-1.3,2.4c-1,0.3-2.1-0.2-2.6-1.2c-0.5-0.8-0.6-1.7-0.5-2.7
	c0.4-2.4,2.6-4,3.6-6.2c0.2-0.5,0.1-0.3,0.5-0.7c0.4-0.4,1-0.5,1.5-0.4C147.8,129.3,147,130.9,146.8,132.1z"/>
<path class="st9" d="M217.8,198.6c6.6,0.4,13.1,0.6,19.7,0.6c0-1.1-1-1.9-2-2.4c-2.3-1.4-4.7-2.6-6.9-4.2c-1.7-1.2-3.9-4.1-6.1-4.1
	C219,188.5,215.6,198.5,217.8,198.6z"/>
<path class="st9" d="M138.8,239.1c-0.3,0.4-0.4,1-0.4,1.5c0.2,0.5,0.7,1,1.2,1.1c2.6,1,5.4,1.5,8.1,1.4c4.1,0.1,8.2,0.1,12.3-0.1
	c0.7,0.1,1.4-0.2,1.9-0.8c0.3-0.6,0.2-1.3-0.2-1.8c-0.5-0.4-1-0.8-1.6-1c-2.3-1-4.5-2.3-6.6-3.8c-1.9-1.5-3.5-4-5.8-5
	C143.6,228.7,140.5,236.1,138.8,239.1z"/>
<polygon class="st1" points="239.8,199.2 242.4,199.3 247.3,40.4 244.5,39.8 "/>
<linearGradient id="SVGID_16_" gradientUnits="userSpaceOnUse" x1="242.96" y1="238.4689" x2="248.75" y2="238.3089" gradientTransform="matrix(1 0 0 -1 0 358)">
	<stop  offset="0" style="stop-color:#010101;stop-opacity:0"/>
	<stop  offset="0.95" style="stop-color:#010101"/>
</linearGradient>
<polygon class="st19" points="239.8,199.2 242.4,199.3 247.3,40.4 244.5,39.8 "/>
<polygon class="st1" points="181.4,81.7 186,89.3 181.6,91.9 179.8,82.1 "/>
<path class="st9" d="M184.8,92.5c0,0.2-0.1,0.4-0.2,0.6c-0.8,1.6-1.7,3.3-3.2,4.1c-1.2,0.6-2.6,0.8-3.9,0.6
	c-1.3-0.3-2.6-0.7-3.8-1.3c-2.5-1.1-4.9-2.3-7.3-3.6c-2.4-1.4-4.9-2.9-7.6-3.4c-1.4-0.2-2.8-0.2-4.2-0.1l-3,0.1
	c-0.2,0-0.5,0-0.7,0.1c-0.1,0.1-0.2,0.2-0.3,0.3l-3.3,4l6.1,2.8c0.3,0.2,0.7,0.3,1,0.3c0.4,0,0.8,0,1.2-0.1
	c3.8-0.7,7.7-0.6,11.4,0.3c3.5,0.9,6.8,2.4,10.4,3c1.3,0.2,2.7,0.2,4-0.1c2.6-0.8,4.4-3.1,4.6-5.8c0-0.3,0-0.6,0.1-0.9
	c0.2-0.4,0.7-0.7,1-1c0.5-0.5,0.6-1.2,0.4-1.8c-0.2-0.6-0.8-1.1-1.4-1.1c-0.5,0.3-1.3,0.6-1.4,1.3S184.8,91.8,184.8,92.5z"/>
<linearGradient id="SVGID_17_" gradientUnits="userSpaceOnUse" x1="152.24" y1="229.5292" x2="192.4763" y2="229.5292" gradientTransform="matrix(1 0 0 -1 -5.18 324.48)">
	<stop  offset="0" style="stop-color:#010101;stop-opacity:0"/>
	<stop  offset="0.95" style="stop-color:#010101"/>
</linearGradient>
<path class="st20" d="M184.8,92.5c0,0.2-0.1,0.4-0.2,0.6c-0.8,1.6-1.7,3.3-3.2,4.1c-1.2,0.6-2.6,0.8-3.9,0.6
	c-1.3-0.3-2.6-0.7-3.8-1.3c-2.5-1.1-4.9-2.3-7.3-3.6c-2.4-1.4-4.9-2.9-7.6-3.4c-1.4-0.2-2.8-0.2-4.2-0.1l-3,0.1
	c-0.2,0-0.5,0-0.7,0.1c-0.1,0.1-0.2,0.2-0.3,0.3l-3.3,4l6.1,2.8c0.3,0.2,0.7,0.3,1,0.3c0.4,0,0.8,0,1.2-0.1
	c3.8-0.7,7.7-0.6,11.4,0.3c3.5,0.9,6.8,2.4,10.4,3c1.3,0.2,2.7,0.2,4-0.1c2.6-0.8,4.4-3.1,4.6-5.8c0-0.3,0-0.6,0.1-0.9
	c0.2-0.4,0.7-0.7,1-1c0.5-0.5,0.6-1.2,0.4-1.8c-0.2-0.6-0.8-1.1-1.4-1.1c-0.5,0.3-1.3,0.6-1.4,1.3S184.8,91.8,184.8,92.5z"/>
<linearGradient id="SVGID_18_" gradientUnits="userSpaceOnUse" x1="189.2197" y1="247.6697" x2="193.3797" y2="247.7897" gradientTransform="matrix(1 0 0 -1 -5.18 324.48)">
	<stop  offset="0" style="stop-color:#010101;stop-opacity:0"/>
	<stop  offset="0.95" style="stop-color:#010101"/>
</linearGradient>
<path class="st21" d="M184.5,76.6c0-0.1,0.1-0.3,0.1-0.4c0-0.1-0.1-0.3-0.2-0.3c0-0.1-0.1-0.1-0.2-0.1c-0.1,0-0.1,0-0.2,0.1
	c-0.1,0.1-0.2,0.3-0.2,0.5c0,0.3,0.1,0.7,0.2,1c0.1,0.2,0.2,0.4,0.4,0.4c0.1,0,0.2,0,0.3-0.1c0.2-0.1,0.4-0.4,0.3-0.6
	s-0.3-0.1-0.4-0.2C184.6,76.9,184.5,76.8,184.5,76.6z"/>
<path class="st22" d="M236.8,107.9l-0.2,1.1l-15.6,4.1c-3.1,0.8-6.4,1.6-9.4,0.6c-1.9-0.7-3.6-1.8-5.1-3.2c-3.2-2.5-6.1-5.2-8.7-8.3
	l0.3-2.2c0,0,11.8,10.8,16.1,10.6c4-0.2,20.4-2.5,22.4-2.8L236.8,107.9z"/>
<path class="st9" d="M129.5,142.4l40.6-3.8c1.5-0.1,2.9,1,3,2.5l2.6,27.4c0.1,1.5-1,2.9-2.5,3l-40.6,3.8c-1.5,0.1-2.9-1-3-2.5
	l-2.6-27.4C126.9,143.9,128,142.5,129.5,142.4z"/>
<linearGradient id="SVGID_19_" gradientUnits="userSpaceOnUse" x1="166.3403" y1="168.9982" x2="193.6903" y2="172.9682" gradientTransform="matrix(1 0 0 -1 -5.1757 324.4746)">
	<stop  offset="0" style="stop-color:#010101;stop-opacity:0"/>
	<stop  offset="0.95" style="stop-color:#010101"/>
</linearGradient>
<path class="st23" d="M128.5,142.5l40.6-3.8c1.5-0.1,2.9,1,3,2.5l2.6,27.4c0.1,1.5-1,2.9-2.5,3l-40.6,3.8c-1.5,0.1-2.9-1-3-2.5
	l-2.6-27.4C125.9,144,127,142.6,128.5,142.5z"/>
<path class="st9" d="M121.9,143.2l40.6-3.8c1.5-0.1,2.9,1,3,2.5l2.6,27.4c0.1,1.5-1,2.9-2.5,3l-40.6,3.8c-1.5,0.1-2.9-1-3-2.5
	l-2.6-27.4C119.3,144.7,120.4,143.3,121.9,143.2z"/>
<path class="st1" d="M142.2,130.6l0.8,0.7c0,0,2.4-3,4.2-0.3l1.1-1C148.2,130.1,144.8,125.8,142.2,130.6z"/>
<linearGradient id="SVGID_20_" gradientUnits="userSpaceOnUse" x1="150.4105" y1="197.02" x2="150.0505" y2="146.34" gradientTransform="matrix(1 0 0 -1 -5.18 324.48)">
	<stop  offset="0" style="stop-color:#010101;stop-opacity:0"/>
	<stop  offset="0.95" style="stop-color:#010101"/>
</linearGradient>
<path class="st24" d="M142.2,130.6l0.8,0.7c0,0,2.4-3,4.2-0.3l1.1-1C148.2,130.1,144.8,125.8,142.2,130.6z"/>
<path class="st1" d="M236.5,104.5l-1.1-0.1c0,0-0.2,4.2,0.6,4.7l0.6-0.1l0.4-1C236.5,106.9,236.3,105.7,236.5,104.5z"/>
<path class="st22" d="M236.5,104.5l-1.1-0.1c0,0-0.2,4.2,0.6,4.7l0.6-0.1l0.4-1C236.5,106.9,236.3,105.7,236.5,104.5z"/>
<linearGradient id="SVGID_21_" gradientUnits="userSpaceOnUse" x1="477.1333" y1="119.3734" x2="546.3333" y2="52.6234" gradientTransform="matrix(1 0 0 -1 -5.18 324.48)">
	<stop  offset="0" style="stop-color:#010101;stop-opacity:0"/>
	<stop  offset="0.95" style="stop-color:#010101"/>
</linearGradient>
<path class="st25" d="M470.6,205.6c-0.9-0.3-1.9,0.1-2.3,1c-0.1,0.2-0.1,0.5-0.1,0.8c-0.6,5-0.8,9.9-0.5,14.9c0,0.7,0.1,1.3,0.5,1.9
	c0.9,1.4,2.8,1.2,4.4,1.4c1.8,0.2,3.7,1,5.4,0.6c1.4-0.5,2.6-1.4,3.5-2.6c4.8-5.4,11.1-11.9,14-18.6c-3.3-0.9-8.8,0.6-12.4,0.7
	C479,205.9,474.8,205.9,470.6,205.6z"/>
<linearGradient id="SVGID_22_" gradientUnits="userSpaceOnUse" x1="165.2305" y1="273.7368" x2="358.2505" y2="259.2668" gradientTransform="matrix(1 0 0 -1 -5.18 324.48)">
	<stop  offset="0" style="stop-color:#010101;stop-opacity:0"/>
	<stop  offset="0.95" style="stop-color:#010101"/>
</linearGradient>
<path class="st26" d="M243.2,57.6c0,0-6.7-15-21.8-9.5s-32.9-8.9-32.9-8.9s3.1,17.6,14.2,19.3s20.9-3.3,24.8,3.8
	c5.9,10.9,15.7,7.5,15.7,7.5V57.6z"/>
</svg>
