<svg xmlns="http://www.w3.org/2000/svg" width="106.8" height="128.3" viewBox="0 0 106.8 128.3">
  <path id="gurugram" d="M321.6,276.2l.5.5-.7,1.3v1.1l-1.3.9-.4,1.1-.8,1-.8,1.8-.9.8h-.8l-.4.9.1,1.4-.8.6-.6.1-1.4,1.1-1.2.2-.9.5.1.5-.8,1.8-.5.3-.1.6-1.1,1.4-.4.3-.3.8.1,1.2-.5,1v.7l-.5.5-.1.9-1.1.7-.2,1.1.9,1.2.1.6-.6.2-.2.7.3.8-.6.5-.8,1.8.5.9.3,1-.7.3-.2.4.5.9.5.3.3.7-.2.4.1.7.7.6-.5.8.5,1.5-.8.3.1,1,.9.2.3,1.1-.8,1.7.4.9v.5l-.5.4.4,1.8-.4,1.1.4.7-.5.9v.4l1.1,1,.2,1.1,1,1.1.7.6-.7,1.7-.1.6.5.4-.3.6.9.5-.2.3-1.2.4.2.9-.1.2h-.7l-.4.5-.5-.1-.3-.5-.6-.1-.4-.2-.5-.1-1.2.1-.4.7-.2.7h-.8l-.8-.1-.2.1-.7.2-.3.5-.4.6.2.3.1.8-.3.6.4.5-.3,1.1.5.5-.2.4-.1.7-.1.1-.7.2-.2.6-.2.6-.6.2-.5-.2-.8,1.8h-.7l-.1.4.2,1,.7.6.7.6v.6l.5-.2H300l.9-.5.2.2,1,.3.2-.4-.4-.7.6.4h.1l.8.5.2.2h.3l.5-.2.6.6.6.4-.1.4.3,1.3.6.5.7.4.5.7,1-.1.7-.1.8-.6.1-.7-.6-.6.3-.5.7-.4.8-.4.8.3.5-.2.5-.5.3-.1.7.5.6.8.7.2v.5l1,.1.3.9,1.3.7-.1.8.5.6.3.8-.9.6,1,1.4-.1,1h-.7l-.2.4,1.5.6h.9l-.1.6-.7.4.3.8.5.7-.2.8-1.1.3v1.5l-.9.8-.2.6.5,1-.2.5,1,1,.2.5.8.6-.9.8.9.3v.6l-.5.7h-1.8l.2.8-.1.6-1,.7-.7-.7-.7.5.4.9-1.3-.2-1.2.2-.9,1.1-1.3.9-.4-.3-.3.7-.7.4-.4-.4h-1.1l-.6-.7-.8.1v1l-1.6.1-1-1-1.2-.4-.5,1.3.9,1,.7.1.3.8-.9.4-.7-.8-1.3.2-.5,1.4-.3,1.9-1.2-.7-.9.7-.6-.9.8-.8-.4-.6-.5-.1.3-2.6.3-.8-.2-.5.3-.6.6.1.1-.8-.1-1.6h.4v-.9l-.6-.2.2-2.1-.2-.7.4-1.8.5-1.1.5-2.8-.7-.2L298,362l.5-.5-1.1-.2-.1-.5h-1.1l-.3.4-.6-.1v.6l-.5.3.2.9-.2.5-1.2.4-.6.7-1-.2-.9,1.4-1.2.2.1,1.8.3,1-.8.4h-1.3l-1,1-.8.5-.5-.3.3-1.5V368l-.5-.3-.5.4-.6-.5-1.3.1.1-.6.9.1.5-.2-1-.9-.7-.2.3-.7,1.4.1-.3-1-.6-.6-1.2-.1-.3.2-1.1-.1-.7.4-.5-.2-.3-.9-.6-.4-.9-.2-1,.1v.4l1.5.8.3.4.8.4-.8.8-.8-.1,1,1.4.5.3-.5,1.4-.7.4-.9-.4v-.7l-.6-.7-.7-.2-.7.6-1.9-.1v.4l.9.7-.2.3h-.8l-.7,1.2.3.4.6.3-.3,2.5,1,.4-.3.6.1.7.4.6-1.1,1.6-1.6-1-.2-.8-1.1-.6-.3.7-.7-.2-.3.3-1.4-.5-1.2-.1.1-1.7-.7-.4-1,.1-.1-.6.7-.3.6.1.2-1,.6-.8-1-.2v-.5l1.1-.1-.6-.5.1-.8h1.2l.2-.7.6-.5-.6-.5-.5.8-.8-.9h-.6l-.8-.4.2-.4,1.2-.9h.5l.1-.9,1.1-.8,1.3.2v.9l.6.1.4-.5-.7-.7-.3-1-.7-.2.3-.8-.6-.1-.8-.6-.2-.4.4-1.1-1.1-.6-1-1.6-1-.3-.2-.9-1.7-.9-1.3-.2-.2-.5-.9-.2-.5.4-.6-.1-.1-.5.6-.8-.2-.7-1.5-.6.1-.5-1.6-.5-.9-.8.1-.5-1.3-.5-.3-1.7-.4-.6-.8-.1-.3-.4-.7.1-.2-1.1-.3-.2-.3-3.3-.5-1.5-.6-.6.5-1.9-.9-.9v-1.5l-.7-1.1V333l1-.1.2-.8.5-.5-.2-1.4-1.3-.4-1.3.2.2-1-.4-.9-1.7-.2v-1.6l.6-.7L246,325l.2-1,.7-.1.4-.7-.1-.9-.3-.7.4-.4-.2-.8-.5-.1-1,.6-.2.9-1-.4.3-.6v-1.1l-.2-.6-1.4.8-.2.8-1.2.1-.4.6-1-.3-.5-1-.6.2-.5.7-1.2.1-.2.6-1-.2-.9-1.2-.4-.9-.6-.2-1.1.8-.5-.4H232l-.4-.9.3-.6-.5-.7-.3-1.1-1.3-.8h-.6l-.7-.7-1.4.2-1.1,1.5-1.5.3-.7-.6-.8.1-1.3-.3-.3,1.6-1.6.2.2-1.1-1-1.2-.1-.8-.6-.6-.7-.1-.1-1,.2-.6,1.5.3.5-1.4.7-1.1v-.4l-1.4-.9v-1.2l.1-1.7.4-.3-.3-.7.9-2.7.1-1.2-.5-.5-.7.5h-1.2l-.4.4-1.8-.1-.2-1.7.1-.5.8-1,1.4-.5.7-1-.7-1.5-1-.2.5-1.4,1.8.7.5.4,1.8.4v-.7l1.4-1,.5-.9,1,.4.5-.3,1.3-.2.8-.7.7.7,1,.6h.8l1.7.7.7,1.5.9.5v.4l.7.9.8-.3.8-.7,1,.1.4-1.3.8.6v1.2l-.6.3.1.6.6.2-.4.8.3.6.8-.1.2.8.6-.2.2-1.1,1-.8.6.4-.1,1.3.5.4.6,1.3-.3.8-.8.1-.4.7.4.6-.3.6-1,.5.4.8v.7l.9.3.8.6-.4,1,1,1.2,1.8-.4.4-1-.8-.6.3-.7.6-.5.4-1.5h.9l-.4-.7,1-.9h.6l.1-.9.5-1,1.6-1v-.9l2.1,1.4,1.7.3.3.8,2-.3.1-.8h1.4l.4.6.6.1.3-2.1,1.5-.1.8-.6.8.8.8-.4.8,1.6.7.9.6.2.6-.3.5.7.7.2h1.3l1.1-.7.7-.2.6.3.6-1,.5-.3.1-1,.6-.2.8.6.7-.8,1-.1.9-1,1.2-.4.4-.6-.5-.6h-1l-.5-.4v-1.1l-.5-.2.4-.7.8.1-.5-2.4.4-1.2,1-1.8.8-1-.7-.1-.9-.8.2-.3v-.8l1.4,1.5.9.2.5-.2.7.4.5-.1.7-.7-.8-.8.8-.1.5.9h.9l-.2-.7.6-.5-.7-1,.6-.6.7.1.3.7-.1,1.2.7,1,.2.9,1.3.1.4.8,1.1-.2.7-.6,1.2.7,1-.6.3-.6.1-1-.3-1.4.6-.5v-.9l-1.2-.3.3-.4-.8-1.2h-.5l-.9.8-.1-.9,1.2-.5,1.2-.2,1.2-1h.4l.3-.7.9-.3,1.4-1.3-1.3-1.4.9-.4-.1-.7.9-.2,1,.5,1,.1.8-.9.5.8.6.2.1.6.4.4-.1.8h.7l1-1-.6-.6-.2-1-.4-.3.1-.7V272l.6-.2.3-1.2L298,270l.6-.4-.1-.6.5-1.4-.5-.8-.9-.8h-.5l.2-1.2-1.6.4.1-1v-.4l.5-.7-.4-.7.2-1.3.6-1.1-.5-.5-.2-1.1-.9-.4-1.1-1.4-.2-.6.3-.5,1.3-1v.9l.5.8,1,.7,1.7-1.1.8,1.7.1.7.5.3.3.7.6.2,1-.3v1l-.4.5.6.4.3,1,1.1-.3,1.1.2.8.5.8,1,1,.7-.1,1.4.4.6-.2,1.5-.6.7-1,.6.4.8.5.4,1.7.5.4.7.1,1.1.9-.4.8.2.4.7,1.6.5.4-.3h.8l.4.8.8-.2.5,1,1.1-.8.6-.9.4.3-.1.7-.5.6-.1.8.9-.1,1-.4.1-.7.5-.6.6,1.3.6.8,1.1.5Z" transform="translate(-215.35 -254.45)" fill="#7c7c7c" stroke="#000" stroke-linecap="round" stroke-linejoin="round" stroke-width="0.1"/>
</svg>
