<svg xmlns="http://www.w3.org/2000/svg" width="259" height="318.51" viewBox="0 0 259 318.51">
  <g id="manila" transform="translate(-180.3 86.3)">
    <path id="PHL2549" d="M464.9,612.9l-.9.1-1.8-.2-1.1.7-.6,1.3-.5,1.9-1.2.5-.3.7.6.4.6-.4.7,2.5.2,1-1.1,2.7-2.1,2.5-1.9,2.6.1,2.8h-1.4l-1.3-.4-2.7-2.8-1.1-1.6v-1.8l1.6-4.6.1-2.1-.8-3,3.1-15.7,3.5-11.5.2-3.8-.7-4-9.7-28.9L465,536l37.3-31.6,6.6-6.8,17-24.3,21.4-.3-.6.7-.4.9-.2,1-.1,2.1-.3.6-1.8,1.3-.7,1.5.1,1.2,1.2,3.2.7-1.5.1-.8h.7l-.7,3.8-3.4,6.8.5,2.7,1.8-1.6,1.8-1.3-.3,1.6-2.6,4.3v.7l.2,1.6-.2.7-.5.3-1.7.2-.5.2-2.9,3.7-3.5,2.9-3.3,3.3-.7.5-.3.6-.2.9.2,2.1-1.5,2.3-4.5,2.9-1.8,2.2-.7-.8,2.1-3,1-1.9.4-2.1.8-1.5,4.9-3.3.7-1.8.6-2.4.9-2.2,3.2-1.9.8-2-.6-1.8-2.8-.4-2.1,1-1,1.5-.4,1.8v2l-.7,1.7-1.7,1-4,1.3-5.9,3.2-1.5.4-3.7.6-3.7,1-1.3.9-1.2,1.3-1.5,1-3.1.8-1.2.6-1.1.4-1.7-.7-.9.3-7,6-.6,1.2-3.8,4.4-5,2.6-1.6,1.4-1.1,1.8-.8,2.2-.7,4.5.2,2.6,1.6,3.8.4,2,1.1,1,2.5.3,2.3.6,1.1,2.2-.6,1.5-4.3,5.1,1.7.4.9.4,1,.7-4,2.2-1.8,1.4-.7,1.8-.5,2.1-1.3,1.6-5.5,4.7-.9,1.3-.8,6.9-.7,1.9-.9,1.8-3.9,5.1-1.8-.4-1.1-.6-.8.6-.9,2.7-.3,4.7,1.3,4.5,2.3,3.7,3.1,2.4.3.2Z" transform="translate(-109 -514)" fill="#7c7c7c" stroke="#fff" stroke-linecap="round" stroke-linejoin="round" stroke-width="2"/>
    <path id="PHL2553" d="M459.1,453.2l.7,1.3.3,3.3-4.4,22,.1,1.5L457,483l2,1.2,2.2.5,2.1-.1-.4,4.1-.6,2-1,1.3L449,499.1l-.5.9,2.5,13.1,1,3.4,1.5,3.2L465,536l-18.6,15.8-1.7-4.6-4.5-8.4-1.3-4.7-.4-7.8-.6-3.7-1.8-3.4L433,517l-4.4-1.8-8.4-1.9-3.3-.1-3.9.4-3.5,1.3-2.4,2.2-1.3-4.6-1.1-2.2-1.7-1.2-9.4-2.8-.2-3.2.8-3.4,1.6-3,2.2-2.4,1.7-.7,2.6.2,1.7-.9,1.8-2.6,1.8-4.3,1.2-4.5.3-3.2-.4-3.7v-11l34.6-6,4.4-1.3,1.2-1L450,453h.2l1.7-1.4.7-2,1-1.6.1-.9-.3-1.5,4.6,5.6,1.1,2Z" transform="translate(-109 -514)" fill="#7c7c7c" stroke="#fff" stroke-linecap="round" stroke-linejoin="round" stroke-width="2"/>
    <path id="PHL2554" d="M469.2,460.2h5.4l3,2L495,484.5l1.5.8,1.4-.1,28-11.9-17,24.3-6.6,6.8L465,536l-11.5-16.3-1.5-3.2-1-3.4L448.5,500l.5-.9,12.3-7.1,1-1.3.6-2,.4-4.1-2.1.1-2.2-.5-2-1.2-1.2-1.7-.1-1.5,4.4-22,2.8,1.7,4,.7h2.3Z" transform="translate(-109 -514)" fill="#7c7c7c" stroke="#fff" stroke-linecap="round" stroke-linejoin="round" stroke-width="2"/>
    <path id="PHL2555" d="M371.8,653.6l.1,4.2-1,6.9.3,2.2,4,4.6.4,1.2-.5,1.2-.2,1.6,1.9,7.6.5,4.8-1,4.1-2.5,2.8-3.9.7-1-.3-1.5-.6-1.1.1-.3.4-.2.8-.6.7-1.5.3-.4-.3-.7-1.6-4.7-1.4-.9-.4-2-2.6-.6-3,.5-6.4-.4-3.6-1.1-2-4.2-2.8-1.1.6-1.1.1-.8-.5-.5-.9H345l-3.3-4.8-1.2-3.3,2-1.5,1.2-.4-.8-.8-2.2-1.3.3-1.2.9-.9.9-.9.8-.9.6.1.5-.4,1.5.4,2.4-2.5,2.2-1.7,2.5-1.1,3.3-.3,2.5-1,2-2.3,1.4-3,.5-3,1,1.6.6,4,.8,1.8,1.5,1.6,3.7,2.3,1.2,1Z" transform="translate(-109 -514.571)" fill="#7c7c7c" stroke="#fff" stroke-linecap="round" stroke-linejoin="round" stroke-width="2"/>
    <path id="PHL2556" d="M380.3,547.4l1.6,11.6,2,5.6,3.5,3.8,1.5.4,4.2.2,1.2.6v1.6l-1.1,1.6-1.3,1.6-.7,1.6v1.5l.5,1.4.6,1.4.4,1.3.1,1.3.1,3.7.6,2.9v1.3l-1,4.3-.3,1.9.2,1.6.6,1.6,1.5,1.6,1.3,1,.5,1.4-.6,3.1h-1.3l-.8-.5-.4-.7-.4-.3-1.8.2-3.7,1-9.9.7-2.2-.2-2.3.4-7.3,2.5-2,1-4.1,3.9-2.4,1.5-2.3.2-3.2-6-1.9-2.8-2.4-2.4-3.6-2.1-8-3-3.3-2.3-2-6.8,2.6-7.9,8-14.4,6.2-3.1,2.6-2.4,2.6-5.6,1.8-2.4,2.1-1.4,2.4.3,4.6,2.5,1.4.9,1.5.3,1.7-.7,3-2.2,2.7-2.6,1.5-3.5,1.1-3.8,1.4-3.7.8,1.2.8,1.4,1.1,2.9Z" transform="translate(-109 -514.316)" fill="#7c7c7c" stroke="#fff" stroke-linecap="round" stroke-linejoin="round" stroke-width="2"/>
    <path id="PHL2557" d="M446.4,551.8l9.7,28.9.7,4-.2,3.8L453.1,600,450,615.7l-5.2-.1-9.1-6.7-4.8-1.6-4.2.3-14.4,3.9-1,.4-1.2.2-1,.4-.9,2.6-1.7,1.5-2,.8-1.7-.1-.4-.7v-1.8l-.2-.7-.9-.5-1.8-.3-.9-.3-1.5-1-1.1-1-.5-1.5.2-2.2.6-3.1-.5-1.4-1.3-1-1.5-1.6-.6-1.6-.2-1.6.3-1.9,1-4.3v-1.3l-.6-2.9-.1-3.7-.1-1.3-.4-1.3-.6-1.4-.5-1.4V576l.7-1.6,1.3-1.6,1.1-1.6v-1.6l-1.2-.6-4.2-.2-1.5-.4-3.5-3.8-2-5.6-1.6-11.6,11.3-2.9,3.2.1,1.5,1,1.2,1.4,1.8,3.2,1.3.2,1.5-1.5,1.4-2.2.8-1.5,1.7-5,.8-1.5,1-1,.9-.7.9-.8.8-1.5.7-4.4-.9-4.5-3.1-8.7,2.4-2.2,3.5-1.3,3.9-.4,3.3.1,8.4,1.9L433,517l3.1,2.2,1.8,3.4.6,3.7.4,7.8,1.3,4.7,4.5,8.4,1.7,4.6Z" transform="translate(-109 -514)" fill="#7c7c7c" stroke="#fff" stroke-linecap="round" stroke-linejoin="round" stroke-width="2"/>
    <path id="PHL2558" d="M395.7,607.3l-.2,2.2.5,1.5,1.1,1,1.5,1,.9.3,1.8.3.9.5.2.7v1.8l.4.7,1.7.1,2-.8,1.7-1.5.9-2.6,1-.4,1.2-.2,1-.4-1.3,2.8-.4,1.6-.1,1.4.4.8,1.2,1.1.4.6.3,1.8-.1,1.7-2.9,8.7-.8,1.5-.7.4-1.7.4-.7.5.7.5.4.6-.2.8-.8.8-1.7.9-.7.8-2.4,2.7-7.6,2.6-3.1,1.9-.9,1.5-4,9.1-1.5,1.7-.9-.2-1.4-.6-1-.9-.4-1.3.1-3.7-.2-1.8-.6-1.5-.2,3.4.2,1-1.4,1.4-.4-.7-.3-.1-.8.8,1.3-7.1-.5-1.7-1.6-.2-.9,2.1-.4,4.7-2.1-1.2-.8,1.4v1.1l-1.2-1-3.7-2.3-1.5-1.6-.8-1.8-.6-4-1-1.6-2.8-4-.5-1.7-.2-1.9.2-1.7-.2-1.6-1-1.8-1.7-1.4-1.6-1.1-1.3-1.2-1-2-.2-1.8.2-1.4.7-1.3,1.2-1.4,2.3-.2,2.4-1.5,4.1-3.9,2-1,7.3-2.5,2.3-.4,2.2.2,9.9-.7,3.7-1,1.8-.2.4.3.4.7.8.5h1.3Zm-14.4,15.4V616l-7,.2-5.9,3.4,4.3,1.1,4,3.4Z" transform="translate(-109 -514.473)" fill="#7c7c7c" stroke="#fff" stroke-linecap="round" stroke-linejoin="round" stroke-width="2"/>
    <path id="PHL2559" d="M403.4,436.8l2.9,5.1,1,7.4.3,7.9,1.1,6.4v11l.4,3.7-.3,3.2-1.2,4.5-1.8,4.3-1.8,2.6-1.7.9-2.6-.2-1.7.7-2.2,2.4-1.6,3-.8,3.4.2,3.2-5.9,1.3-2.9.2-3-.5-8.9-3.7-3.1-.6-2.2-5.6-1.6-6.5L364.2,478l1.2-5.6,3.2-5.4,8.4-9.3,2.4-4.5,2-17.9,2.5-3.9,3.8-.8,4.1-.2,3.6-1.7,1.8,2.6,1.8,1.9,4.4,3.6Zm-21.3,44.6-8.4-.2,2.2,8.1,7,.6-.8-8.5Z" transform="translate(-109 -514)" fill="#7c7c7c" stroke="#fff" stroke-linecap="round" stroke-linejoin="round" stroke-width="2"/>
    <path id="PHL2560" d="M341,569.3l-8,14.4-2.6,7.9,2,6.8,3.3,2.3,8,3,3.6,2.1,2.4,2.4,1.9,2.8,3.2,6-1.2,1.4-.7,1.3-.2,1.4.2,1.8,1,2,1.3,1.2,1.6,1.1,1.7,1.4,1,1.8.2,1.6-.2,1.7.2,1.9.5,1.7,2.8,4-.5,3-10.9.1-7.2-2.2-7.3,5.7-1.3,1.5.5,2.5-.4,3.7-1.1,3.5-1.2,1.9-1.4.1-1.9-.4-1.6-.7-.7-.7-.5-1.3-2.7-.9-1-1,.8-.4.6-.5.3-.6-.1-.6-1.6.5-2.4-8-.8-4.1.8-9.7-.4-4.3L317.4,613l-1-1-.6-.4-.1-1.1.3-1.8v-2.4l-.4-.9-2.1-3.2-1.7-3.6-1.1-1.6-5.8-5.9-.9-1.9.2-.9,1.5-1,.4-.6-.2-1.8-.5-1.5,1.9,1.2,2.1-.4,1.7-1.7.7-2.5-.2-.7-1.1-1.5-.5-.3-.3-.5-.2-1.2-.5-1.3-.8-.8-.7,1.6-1.9-4.1-.2-1.5.2-1.1,1.4-2.8.5-1.5-.3-3.1-1.8-1.6-2.1-1.4-1.5-2.7,2.3-.5.5-1.7-.6-4.1,3.3.3,2.6-.3,2.3-1,4.2-4.5,2.4.3,5.3,2.8,1.5.2,2.9-.1,1.3.2,1.2,1.1.6,1.7.6,3.4,1.9,4,5.4,8,1.5,4Z" transform="translate(-109 -514.351)" fill="#7c7c7c" stroke="#fff" stroke-linecap="round" stroke-linejoin="round" stroke-width="2"/>
    <path id="PHL2561" d="M377,457.7l-8.4,9.3-3.2,5.4-1.2,5.6,1.8,12.9,1.6,6.5,2.2,5.6-1.7,2.3-3,.7-6.3-.4-1.8-.2-.4-2.1-1.3-2.5-3.3-4.3v2.2l-.5-.8-1.3-1.4-2.5-17.7-1.3-4,.8-5.5-.9-2.6-1.4-2.6-.9-2,1-1,.3.7h1.9v-.7l-.6-1.3.1-2.4.6-2.4,1.9-3.8-.3-2.3-.7-2.4-.5-2.3.2-2.4.2-1,.4-1.1.7-1.3,1.6-1.2.9-.9,4.9-7.4,1.5.7,1.8.6h1.6l3.4-.7,1.6.5.8-.3.7-.4.8-.2.8.6.2,1.3-1,4.1-.2,1.5.7,1.7,1,1.2.5,1.2-.4,1.7,1.4.5.5,1.6V449l-.3,1.9.1.8.6,1.4.8,1.1,3.5,3.5Z" transform="translate(-109 -514)" fill="#7c7c7c" stroke="#fff" stroke-linecap="round" stroke-linejoin="round" stroke-width="2"/>
    <path id="PHL2562" d="M316.1,503l-1.3.2-1.3-1-.4-.9-2.1-1.6-2-2.8-1.2-.8-.3-.9.5-1,1.6-1.7,1.9-.6.4-1,.8-.7,1.2.2.7.6,1.5,3.4L316,499l.6,1.5.2,1.4-.7,1.1Zm26,19.3,4,7.5,4.6-1.2,6.4-5.2-.7-3.2-3.2-4,1-1.6.4-1.1,2-2.1.4-1.3v-4.7l1.8.2,6.3.4,3-.7,1.7-2.3,3.1.6,8.9,3.7,3,.5,2.9-.2,5.9-1.3,9.4,2.8,1.7,1.2,1.1,2.2,1.3,4.6,3.1,8.7.9,4.5-.7,4.4-.8,1.5-.9.8-.9.7-1,1-.8,1.5-1.7,5-.8,1.5-1.4,2.2-1.5,1.5-1.3-.2-1.8-3.2-1.2-1.4-1.5-1-3.2-.1-11.3,2.9-1.1-2.9-.8-1.4-.8-1.2-1.4,3.7-1.1,3.8-1.5,3.5-2.7,2.6-3,2.2-1.7.7-1.5-.3-1.4-.9-4.6-2.5-2.4-.3-2.1,1.4-1.8,2.4-2.6,5.6-2.6,2.4-6.2,3.1-1.5-4-5.4-8-1.9-4-.6-3.4-.6-1.7-1.2-1.1-1.3-.2-2.9.1-1.5-.2-5.3-2.8-2.4-.3-4.2,4.5-2.3,1-2.6.3-3.3-.3v-.4l.3-1.9.5-1.5.2-1.7-.3-2.3-1.7-4.3-1.2-2.2-1.4-1.5-2.6-.7-1.7,1.5-1.2,1.6-1.6-.2-1.5,1.4-1.5-3.1.2-12.3.2-1.8,1.6-4.6.3-2.1-.3-1-1.5-1.6-.3-1.1-.2-3.4.2-1.4,1.9-6.9.6-4.4.9-2.2,1.1-1.7,1.1-1,.5-.1,1.2.2.4-.1,2.2-1.5,1.7-.4,2.2-.3,2.6.7.9,1.8v2.1l-2.4,10.1,1.3.9,4.7,1.2,1,.6.7.8,2.9,3.3,1.1.7,2.3-.1,1.3.2,1.2.8,1.9,2,.8-.3.3.4,1,6.9.5,2.1,1.4,1.5,2,1.1,4.8,1.3,2.4.1,2.2-.5,1.9-1.2,1-.4Z" transform="translate(-109 -514)" fill="#7c7c7c" stroke="#fff" stroke-linecap="round" stroke-linejoin="round" stroke-width="2"/>
    <path id="PHL2563" d="M420.3,699.5l.3,1-.3,3v3.3l1,.6,1.2-.2,1.3-.4,1.4.1,1.3,1.2-.5,1.8-1.3,2.1-1,2.3,1,1.8-3,7.3.5,3-.9,1.9-4.2,2.3-5.1,2-3.7.8-3,.3-.9-.2-1.7-1-3-2.4-.5-.1-1.6.1-.7-.1-.8-.5-1.8-1.3-1-.6-.9-.2-1.8-.2-1-.3-1.2-.8-1.2-1.2-.8-1.2v-2.4l-.9-1.2-1.4-.9-1.4-.4-1.7.2-1.1.5h-1.3l-1.5-1,1.7-2,.9-1.7.6-1.7,1.6-.8,4.2-.8,1.5-.6,1.6-.9,1.2-1.2.6-1.3.5-.6,2.5-1,.9-.6,2.2-3.5,9.1-8.9.8-.4,1.2-.1,2.2.2.8-.3,1.7-2,1.8-1.3,1.3,1.9.3,3,1.3.9,2.5,4.2.2.5Z" transform="translate(-109 -514.685)" fill="#7c7c7c" stroke="#fff" stroke-linecap="round" stroke-linejoin="round" stroke-width="2"/>
    <path id="PHL2565" d="M450,615.7l.8,3-.1,2.1-1.6,4.6v1.8l1.1,1.6,2.7,2.8.7,3.7.5,11.6-3.5-.1-2.2,2-1.9,2.5-2.6,1.6-3.9.8-1.9,2.8-2.1,2.7-1.3,1.7-2.6-.3-.6.8-.7.1-.8.1-5.2-1.6-1.8.3-1,1.6-2.3,1-1.1.5-.9,2.1-2.3.9-1.4-1.5h-2.2l2.2,3.4.1,1.1-2.1-1.5-1.3-.9-.6.8-.9-1.4-.5-1.3-.8-.6-4.9-2-.3-.6-.1-.7-.3-.6-1.1-.2-10.1-.4-6.4-1.1-.6-.2,1.5-1.7,4-9.1.9-1.5,3.1-1.9,7.6-2.6,2.4-2.7.7-.8,1.7-.9.8-.8.2-.8-.4-.6-.7-.5.7-.5,1.7-.4.7-.4.8-1.5,2.9-8.7.1-1.7-.3-1.8-.4-.6-1.2-1.1-.4-.8.1-1.4.4-1.6,1.3-2.8,14.4-3.9,4.2-.3,4.8,1.6,9.1,6.7,5.2.1Z" transform="translate(-109 -514.486)" fill="#7c7c7c" stroke="#fff" stroke-linecap="round" stroke-linejoin="round" stroke-width="2"/>
    <path id="PHL2566" d="M446.1,745.9l-.1-2.5-1.3-.8-1.7-.3-1.1-1.1L440,729.9l-2.5-2.9-5.3-1.1h-5.8l-4.2.5-.5-3,3-7.3-1-1.8,1-2.3,1.3-2.1.5-1.8-1.3-1.2-1.4-.1-1.3.4-1.2.2-1-.6v-3.3l1.4-.4,1.1-1,1.4-.8.9.1.6-.6,7.9-.4-.9-7-1-7.6.6-.2h.9l1.2.8,2.2,1.8L440,697l1,3.9,1.2,6.8,1.6,1.9,1-1.5.3-2.2.8-1.4-1-1.1-1.6-3.6-.3-4v-3.9l1.3-3.7,1.4-1.2,1.7.5.9,2.1.9.6.9.4,1.1.7,1,.8.7,1.2.4,1.3.4,2.8-.4,2.8-1.4,4.8-1.5,2.7.3,3.1,3.9-3,4.3-2.8-1.7-2.5.3-3-1.6-7.4.8-3.7,1.9-3.3,4.4-2.6,3.4-1.6,3.7,5.6,2.6,5,7.1,16.9.7,3.4.3,3.4-.6,3.2-1.4,2.2-1.7,2-1.5,2.5-1.9,4.8-1.2,2.2-1.7,1.7-2.3,1-4.5.5-2.2,1.1-7.5,5.3-8.2,4.2Z" transform="translate(-109 -514.69)" fill="#7c7c7c" stroke="#fff" stroke-linecap="round" stroke-linejoin="round" stroke-width="2"/>
    <path id="PHL2567" d="M454.1,646.9l.4,10.3.9,4.9,2,4.7,9,14.1-3.4,1.6-4.4,2.6-1.9,3.3-.8,3.7,1.6,7.4-.3,3,1.7,2.5-4.3,2.8-3.9,3-.3-3.1,1.5-2.7,1.4-4.8.4-2.8-.4-2.8-.4-1.3-.7-1.2-1-.8-1.1-.7-.9-.4-.9-.6-.9-2.1-1.7-.5-1.4,1.2-1.3,3.7v3.9l.3,4,1.6,3.6,1,1.1-.8,1.4-.3,2.2-1,1.5-1.6-1.9-1.2-6.8-1-3.9-3.4-8.8-2.2-1.8-1.2-.8h-.9l-.6.2-.7-2.5.6-.9-.5-.9.5-1,.2-2.1-.8-1.5.4-1.3.9-.7,1.7.3.5-2.3-.2-1-2.5-.8.5-2.8,1.6-3.1-1-.8.1-1.4.6-.4,1.1-1.7,1.3-1.7,2.1-2.7,1.9-2.8,3.9-.8,2.6-1.6,1.9-2.5,2.2-2,3.5.1Z" transform="translate(-109 -514.596)" fill="#7c7c7c" stroke="#fff" stroke-linecap="round" stroke-linejoin="round" stroke-width="2"/>
    <path id="PHL5537" d="M468.3,438.5l13.3,12.6-.5,7.6-3.5,3.5-3-2h-5.4l1.6-5.5-2.8-4.6-8.9,3.1-1.1-2-4.6-5.6.6-1.8.5-.4.8.2,1.2-.1.7-.3.2-.9,2.9-.7.8-.3.7-.8,1-2.1,1.1-.2,3,.3h1.4Z" transform="translate(-109 -514)" fill="#7c7c7c" stroke="#fff" stroke-linecap="round" stroke-linejoin="round" stroke-width="2"/>
    <path id="PHL5538" d="M381.3,622.7l-4.6,1.4-4-3.4-4.3-1.1,5.9-3.4,7-.2Z" transform="translate(-109 -514.461)" fill="#7c7c7c" stroke="#fff" stroke-linecap="round" stroke-linejoin="round" stroke-width="2"/>
    <path id="PHL5539" d="M382.1,481.4l.8,8.5-7-.6-2.2-8.1,8.4.2Z" transform="translate(-109 -514)" fill="#7c7c7c" stroke="#fff" stroke-linecap="round" stroke-linejoin="round" stroke-width="2"/>
    <path id="PHL5540" d="M362.5,644.3l-1.4,3-2,2.3-2.5,1-3.3.3-2.5,1.1-2.2,1.7-2.4,2.5-1.5-.4.6-.9.4-1.2-1.7-.1-.8-.3-.4-.6-.1-1.2-.4-.5-.7-.1h-1.2l-1.1-.8-1-1.5-1.2-.7,7.3-5.7,7.2,2.2,10.9-.1Z" transform="translate(-109 -514.531)" fill="#7c7c7c" stroke="#fff" stroke-linecap="round" stroke-linejoin="round" stroke-width="2"/>
    <path id="PHL5541" d="M342.1,522.3l3.6-.4,1.5,1.2-.8,2.9,1.3-1,1.1-2.3,1.2-1.1.7.4,1.2.2,1.1-.3.4-1.1-.6-.8-1.3.4-1.4.5-.9-.1.3-1.4,3.7-3.2,3.2,4,.7,3.2-6.4,5.2-4.6,1.2-4-7.5Z" transform="translate(-109 -514)" fill="#7c7c7c" stroke="#fff" stroke-linecap="round" stroke-linejoin="round" stroke-width="2"/>
    <path id="PHL5542" d="M426.2,678.5v1.1l.1.3-.4,1-.5.7-2,.2-.8-.7-1.1-.6,1.1-1.5.8.4,1.3-.3.6-.7Z" transform="translate(-109 -514.61)" fill="#7c7c7c" stroke="#fff" stroke-linecap="round" stroke-linejoin="round" stroke-width="2"/>
    <path id="PHL5543" d="M418.9,674.9l-.2,1,3.2,2.2.7.9-1.1,1.5-2.1,1.8-2.7.1-2.2-3.7-.9-2.2-.2-1.6,3-.1,1.5-.2,1,.3Z" transform="translate(-109 -514.605)" fill="#7c7c7c" stroke="#fff" stroke-linecap="round" stroke-linejoin="round" stroke-width="2"/>
    <path id="PHL5544" d="M412,667.9l-.6.5.9,1,.8.7,1.1,2,.4,1.1h.6l.4.7.8.9-3,.1-.5-2.8-.7-1.5-2.1-2.8.6-.8,1.3.9Z" transform="translate(-109 -514.587)" fill="#7c7c7c" stroke="#fff" stroke-linecap="round" stroke-linejoin="round" stroke-width="2"/>
    <path id="PHL5545" d="M418.9,674.9l-1-.3-1.5.2-.8-.9.2-.5.1-1,.9-.2,2-.1.9-.7-.4-.5.6-.9.8-.1.6-.5h1.2l-1.3,1.3-1.5,1.8-.8,1.5v.9Zm11.9-13.4-.4,1-1,.3-.5.9-.9.5-2.4.1-1.6.2-2.5,1.8-.1,1.4-.4-.3h-.5l-.6-.6.1-1.1.6-.1.1-1.1-.1-.6-.9-1,2.3-1,1-1.6,1.8-.3,5.2,1.6.8-.1Z" transform="translate(-109 -514.576)" fill="#7c7c7c" stroke="#fff" stroke-linecap="round" stroke-linejoin="round" stroke-width="2"/>
    <path id="PHL5546" d="M414,668.3l1,.4,1,2,.8.1,1.4.6,1.1-.5.4.5-.9.7-2,.1-.9.2-.1,1-.2.5-.4-.7h-.6l-.4-1.1-1.1-2-.8-.7-.9-1,.6-.5,2.1,1.5Z" transform="translate(-109 -514.587)" fill="#7c7c7c" stroke="#fff" stroke-linecap="round" stroke-linejoin="round" stroke-width="2"/>
    <path id="PHL5547" d="M421.4,667.7v.7l1.2.3-.1.7h-1.2l-.6.5-.8.1-.6.9-1.1.5-1.4-.6-.8-.1-1-2-1-.4-2.2-3.4H414l1.4,1.5,2.3-.9.9-2.1,1.1-.5.9,1,.1.6-.1,1.1-.6.1-.1,1.1.6.6h.5l.4.3Z" transform="translate(-109 -514.577)" fill="#7c7c7c" stroke="#fff" stroke-linecap="round" stroke-linejoin="round" stroke-width="2"/>
    <path id="PHL5549" d="M434.7,660.9l-1.1,1.7-.6.4-.1,1.4,1,.8-1.6,3.1-.5,2.8-1.3.5-1.1,1.5h-.8l.3.9-1,1.9.4,1,1.2,1.2-.5.2-.3,1.2-1.2-.3-1.3.4v-1.1l-.2-.6h-.6l-.2-.3-1.8-.1-1-.4-.5,1-3.2-2.2.2-1V674l.8-1.5,1.5-1.8,1.3-1.3.1-.7-1.2-.3v-.7l.1-1.4,2.5-1.8,1.6-.2,2.4-.1.9-.5.5-.9,1-.3.4-1,.7-.1.6-.8,2.6.3Z" transform="translate(-109 -514.582)" fill="#7c7c7c" stroke="#fff" stroke-linecap="round" stroke-linejoin="round" stroke-width="2"/>
    <path id="PHL5550" d="M431,676.9l-.5-.3-1.7-.4-.5.7-.4-1,1-1.9-.3-.9h.8l1.1-1.5,1.3-.5,2.5.8.2,1-.5,2.3-1.7-.3-.9.7-.4,1.3Z" transform="translate(-109 -514.594)" fill="#7c7c7c" stroke="#fff" stroke-linecap="round" stroke-linejoin="round" stroke-width="2"/>
    <path id="PHL5551" d="M426.2,678.5l-.9-.1-.6.7-1.3.3-.8-.4-.7-.9.5-1,1,.4,1.8.1.2.3h.6l.2.6Z" transform="translate(-109 -514.605)" fill="#7c7c7c" stroke="#fff" stroke-linecap="round" stroke-linejoin="round" stroke-width="2"/>
    <path id="PHL5552" d="M431,676.9l.8,1.5-.2,2.1-.5,1,.5.9-.6.9.7,2.5-1.6-1.7h-1.5l-.3-.2-.1-.5-.5-.2-.6.2-.1-1-1.6-.8.5-.7.4-1-.1-.3,1.3-.4,1.2.3.3-1.2.5-.2-1.2-1.2.5-.7,1.7.4.5.3Z" transform="translate(-109 -514.611)" fill="#7c7c7c" stroke="#fff" stroke-linecap="round" stroke-linejoin="round" stroke-width="2"/>
    <path id="PHL5553" d="M425.4,681.6l1.6.8.1,1-.4.5.1.9-.3.4H426l-.2-1.3.5-.9-.8-.6-.4.4-.9-.1-.1.5.6.6-.1.7-1.5.6-1,.5-1-.3-.4-.8-.1-1-.9-.3-.3-.9,2.1-1.8,1.1.6.8.7,2-.2Z" transform="translate(-109 -514.617)" fill="#7c7c7c" stroke="#fff" stroke-linecap="round" stroke-linejoin="round" stroke-width="2"/>
    <path id="PHL5554" d="M422.1,685.6l1.3,2.1-1.3.2-1.1-.6-1.4.2-.3-.9.1-1.5-2.2-.2-.5-2.5,2.7-.1.3.9.9.3.1,1,.4.8Z" transform="translate(-109 -514.622)" fill="#7c7c7c" stroke="#fff" stroke-linecap="round" stroke-linejoin="round" stroke-width="2"/>
    <path id="PHL5555" d="M423.4,687.7l1.3.6-.1,3.9v1.7l-2.4,1.2-.8-.5-.4-.9-1.1-.8-.2-1.3-1.1-.8-.1-.7-1-.5-1.5-1.7.8-1,.4-2,2.2.2-.1,1.5.3.9,1.4-.2,1.1.6,1.3-.2Z" transform="translate(-109 -514.633)" fill="#7c7c7c" stroke="#fff" stroke-linecap="round" stroke-linejoin="round" stroke-width="2"/>
    <path id="PHL5556" d="M422.2,695.1l-.1,1.2-1.1,1.3-.2,1.4-.5.5-.2-.5-2.5-4.2-1.3-.9-.3-3-1.3-1.9,1-.7.3-.4,1.5,1.7,1,.5.1.7,1.1.8.2,1.3,1.1.8.4.9.8.5Z" transform="translate(-109 -514.642)" fill="#7c7c7c" stroke="#fff" stroke-linecap="round" stroke-linejoin="round" stroke-width="2"/>
    <path id="PHL5557" d="M432.7,693.4l.9,7-7.9.4-.6.6-.9-.1-1.4.8-1.1,1-1.4.4.3-3-.3-1,.5-.5.2-1.4,1.1-1.3.1-1.2,2.4-1.2v-1.7l.8-.6.9.1Z" transform="translate(-109 -514.652)" fill="#7c7c7c" stroke="#fff" stroke-linecap="round" stroke-linejoin="round" stroke-width="2"/>
    <path id="PHL5558" d="M426.8,684.8l.7-.1.3-.6.5-.2.3.2h1.5l1.6,1.7,1,7.6-6.4-1.7-.9-.1-.8.6.1-3.9-1.3-.6-1.3-2.1,1-.5,1.5-.6.1-.7-.6-.6.1-.5.9.1.4-.4.8.6-.5.9.2,1.3h.5l.3-.4Z" transform="translate(-109 -514.628)" fill="#7c7c7c" stroke="#fff" stroke-linecap="round" stroke-linejoin="round" stroke-width="2"/>
    <path id="PHL5559" d="M428.3,683.9l-.5.2-.3.6-.7.1-.1-.9.4-.5.6-.2.5.2.1.5Z" transform="translate(-109 -514.62)" fill="#7c7c7c" stroke="#fff" stroke-linecap="round" stroke-linejoin="round" stroke-width="2"/>
    <circle id="_1" data-name="1" transform="translate(201.3 -23.7)" stroke-width="2" stroke="#fff" stroke-linecap="round" stroke-linejoin="round" fill="#7c7c7c"/>
  </g>
</svg>
